<svg width="119" height="119" viewBox="0 0 119 119" fill="none" xmlns="http://www.w3.org/2000/svg">
<rect width="119" height="119" rx="20" fill="url(#paint0_linear_13_2)"/>
<g clip-path="url(#clip0_13_2)">
<path d="M23.0451 70.7501C18.0725 70.7501 15 68.9309 15 64.9285C15 60.0368 19.5683 58.9452 23.7728 58.5814L29.9583 58.0963C31.3329 57.975 31.7776 57.6516 31.7776 56.843V56.3983C31.7776 54.862 30.5647 53.7705 26.522 53.7705C23.2877 53.7705 21.1855 54.4578 20.7003 56.56H15.566C16.2937 51.3852 19.9322 49 26.9262 49C33.3947 49 37.4375 51.0214 37.4375 57.4494V70.0629H31.7776V67.5968H31.4946C30.3626 69.2139 27.6944 70.7501 23.0451 70.7501ZM20.7003 64.4838C20.7003 65.8584 21.8727 66.6265 25.0261 66.6265C29.837 66.6265 31.818 64.969 31.818 62.8263V61.6135L23.692 62.2199C21.6706 62.422 20.7003 63.1093 20.7003 64.4838ZM49.6668 70.7501C43.6431 70.7501 40.9344 67.6372 40.9344 60.9262V49.6468H46.5943V60.7645C46.5943 63.9987 48.0497 65.8584 51.9712 65.8584C55.8927 65.8584 58.0354 64.0391 58.0354 60.4815V49.6468H63.6952V70.0629H58.0354V66.9095H57.7524C56.297 69.3352 53.6691 70.7501 49.6668 70.7501ZM67.6018 70.0629V49.6468H73.2617V52.7598H73.5447C74.6767 50.0107 77.0619 49.2426 81.6303 49.2426V54.296C76.0108 54.296 73.2617 55.3472 73.2617 60.9666V70.0629H67.6018ZM89.531 70.7501C84.5583 70.7501 81.4858 68.9309 81.4858 64.9285C81.4858 60.0368 86.0542 58.9452 90.2587 58.5814L96.4441 58.0963C97.8187 57.975 98.2634 57.6516 98.2634 56.843V56.3983C98.2634 54.862 97.0505 53.7705 93.0078 53.7705C89.7735 53.7705 87.6713 54.4578 87.1862 56.56H82.0518C82.7795 51.3852 86.418 49 93.412 49C99.8805 49 103.923 51.0214 103.923 57.4494V70.0629H98.2634V67.5968H97.9804C96.8484 69.2139 94.1802 70.7501 89.531 70.7501ZM87.1862 64.4838C87.1862 65.8584 88.3586 66.6265 91.5119 66.6265C96.3228 66.6265 98.3038 64.969 98.3038 62.8263V61.6135L90.1778 62.2199C88.1564 62.422 87.1862 63.1093 87.1862 64.4838Z" fill="url(#paint1_linear_13_2)"/>
</g>
<defs>
<linearGradient id="paint0_linear_13_2" x1="59.5" y1="0" x2="59.5" y2="119" gradientUnits="userSpaceOnUse">
<stop stop-color="#3034F0"/>
<stop offset="1" stop-color="#6065F0"/>
</linearGradient>
<linearGradient id="paint1_linear_13_2" x1="59.4616" y1="49" x2="59.4616" y2="70.7501" gradientUnits="userSpaceOnUse">
<stop stop-color="white"/>
<stop offset="1" stop-color="#D6D6D6"/>
</linearGradient>
<clipPath id="clip0_13_2">
<rect width="89" height="22" fill="white" transform="translate(15 49)"/>
</clipPath>
</defs>
</svg>
